<?xml version="1.0" encoding="UTF-8" standalone="no"?>
<svg
   width="1200"
   height="800"
   version="1.1"
   viewBox="0 0 317.5 211.67"
   id="svg302"
   sodipodi:docname="prueba.svg"
   inkscape:version="1.2.2 (b0a8486541, 2022-12-01)"
   xml:space="preserve"
   xmlns:inkscape="http://www.inkscape.org/namespaces/inkscape"
   xmlns:sodipodi="http://sodipodi.sourceforge.net/DTD/sodipodi-0.dtd"
   xmlns:xlink="http://www.w3.org/1999/xlink"
   xmlns="http://www.w3.org/2000/svg"
   xmlns:svg="http://www.w3.org/2000/svg"><defs
     id="defs306"><linearGradient
       inkscape:collect="always"
       id="linearGradient15611"><stop
         style="stop-color:#9ed7f1;stop-opacity:1;"
         offset="0"
         id="stop15607" /><stop
         style="stop-color:#7ccaee;stop-opacity:1;"
         offset="1"
         id="stop15609" /></linearGradient><linearGradient
       inkscape:collect="always"
       id="linearGradient15603"><stop
         style="stop-color:#7ccaee;stop-opacity:1;"
         offset="0"
         id="stop15599" /><stop
         style="stop-color:#9ed7f1;stop-opacity:1;"
         offset="1"
         id="stop15601" /></linearGradient><linearGradient
       inkscape:collect="always"
       id="linearGradient1736"><stop
         style="stop-color:#ffffff;stop-opacity:0;"
         offset="0"
         id="stop1732" /><stop
         style="stop-color:#ffffff;stop-opacity:1;"
         offset="1"
         id="stop1734" /></linearGradient><linearGradient
       inkscape:collect="always"
       xlink:href="#linearGradient1736"
       id="linearGradient1738"
       x1="64.028836"
       y1="108.88771"
       x2="93.177442"
       y2="108.88771"
       gradientUnits="userSpaceOnUse" /><linearGradient
       inkscape:collect="always"
       xlink:href="#linearGradient1736"
       id="linearGradient1754"
       gradientUnits="userSpaceOnUse"
       x1="64.028836"
       y1="108.88771"
       x2="93.177442"
       y2="108.88771"
       gradientTransform="rotate(90,71.680205,115.81065)" /><linearGradient
       inkscape:collect="always"
       xlink:href="#linearGradient1736"
       id="linearGradient1762"
       gradientUnits="userSpaceOnUse"
       gradientTransform="rotate(90,92.448996,108.88772)"
       x1="64.028836"
       y1="108.88771"
       x2="93.177442"
       y2="108.88771" /><linearGradient
       inkscape:collect="always"
       xlink:href="#linearGradient1736"
       id="linearGradient1766"
       gradientUnits="userSpaceOnUse"
       x1="64.028836"
       y1="108.88771"
       x2="93.177442"
       y2="108.88771"
       gradientTransform="translate(13.845863,-27.69172)" /><linearGradient
       inkscape:collect="always"
       xlink:href="#linearGradient1736"
       id="linearGradient1770"
       gradientUnits="userSpaceOnUse"
       gradientTransform="rotate(90,113.21779,101.96479)"
       x1="64.028836"
       y1="108.88771"
       x2="93.177442"
       y2="108.88771" /><linearGradient
       inkscape:collect="always"
       xlink:href="#linearGradient1736"
       id="linearGradient1774"
       gradientUnits="userSpaceOnUse"
       gradientTransform="translate(27.691723,-55.38344)"
       x1="64.028836"
       y1="108.88771"
       x2="93.177442"
       y2="108.88771" /><linearGradient
       inkscape:collect="always"
       xlink:href="#linearGradient15603"
       id="linearGradient15605"
       x1="220.01536"
       y1="129.81382"
       x2="232.82553"
       y2="129.81382"
       gradientUnits="userSpaceOnUse" /><linearGradient
       inkscape:collect="always"
       xlink:href="#linearGradient15611"
       id="linearGradient15615"
       x1="231.5285"
       y1="129.81383"
       x2="244.33868"
       y2="129.81383"
       gradientUnits="userSpaceOnUse" /></defs><sodipodi:namedview
     id="namedview304"
     pagecolor="#ffffff"
     bordercolor="#000000"
     borderopacity="0.25"
     inkscape:showpageshadow="2"
     inkscape:pageopacity="0.0"
     inkscape:pagecheckerboard="0"
     inkscape:deskcolor="#d1d1d1"
     showgrid="false"
     inkscape:zoom="0.13720612"
     inkscape:cx="2973.6282"
     inkscape:cy="-80.171349"
     inkscape:window-width="1536"
     inkscape:window-height="888"
     inkscape:window-x="0"
     inkscape:window-y="0"
     inkscape:window-maximized="1"
     inkscape:current-layer="svg302"
     inkscape:lockguides="false" /><path
     d="M 0.22440193,-2.0620744 H 317.7244 V 209.60793 H 0.22440193 Z"
     fill="#9ed7f1"
     id="path2" /><path
     d="m722.07 70.51c-30.787-0.05926-67.692 5.0135-108.93 20.607-0.49218-0.57446-70.053-13.543-115.62 6.75-3.5834 1.682-85.105-6.168-85.105 2.2422s439.86-1.121 506.16-1.6816c0 0-43.897-28.594-99.439-8.9707-1.7637 0-38.251-18.834-97.055-18.947zm-658.02 51.949c-24.17 0.04653-45.65 2.3385-64.055 5.5547v37.305c213.57 3.4129 501.79 7.0788 501.79-1.0176 0-11.889-115.24-0.7922-120.31-3.1699-64.443-28.698-162.83-10.34-163.45-9.541-58.298-22.043-110.47-29.215-153.99-29.131zm850.5 182.98c-41.163-0.07924-90.506 6.7033-145.65 27.553-0.74144-0.78273-93.69-18.095-154.59 9.0254-4.7911 2.2489-113.79-8.2465-113.79 2.998s588.1-1.4984 676.74-2.248c0 0-58.689-38.231-132.95-11.994-2.3581 0-51.142-25.183-129.76-25.334zm-914.55 177.97v67.012c307.73 4.5528 659.89 7.8767 659.89-3.1816 0-18.15-175.93-1.2099-183.67-4.8398-98.342-43.794-248.46-15.807-249.52-14.566-85.292-32.25-161.98-43.642-226.7-44.424zm896.94 140.85c-82.906-0.15959-182.29 13.501-293.34 55.494-1.3496-1.5512-188.65-36.466-311.36 18.178-9.6496 4.5295-229.18-16.608-229.18 6.0391 0 17.972 739.75 5.6249 1136.9-1.0371v-39.367c-13.57 2.8539-27.495 6.6962-41.705 11.717-4.7494 0-103-50.719-261.35-51.023z"
     fill="#c6e8f7"
     id="path4"
     transform="scale(.26458)"
     style="stroke:none;stroke-opacity:1" /><path
     style="fill:none;stroke:url(#linearGradient1754);stroke-width:1.45688;stroke-opacity:1"
     d="m 78.603139,108.15927 v 29.1486"
     id="path1752" /><path
     style="fill:none;stroke:url(#linearGradient1738);stroke-width:1.45688;stroke-opacity:1"
     d="M 64.028836,108.88771 H 93.177442"
     id="path1705" /><path
     style="fill:none;stroke:url(#linearGradient1762);stroke-width:1.45688;stroke-opacity:1"
     d="m 92.449002,80.46755 v 29.1486"
     id="path1760" /><path
     style="fill:none;stroke:url(#linearGradient1766);stroke-width:1.45688;stroke-opacity:1"
     d="M 77.874699,81.19599 H 107.0233"
     id="path1764" /><path
     style="fill:none;stroke:url(#linearGradient1770);stroke-width:1.45688;stroke-opacity:1"
     d="m 106.29486,52.77583 v 29.1486"
     id="path1768" /><path
     style="fill:none;stroke:url(#linearGradient1774);stroke-width:1.45688;stroke-opacity:1"
     d="m 91.72056,53.50427 h 29.1486"
     id="path1772" /><path
     style="fill:#9ed7f1;fill-opacity:1;stroke:#c6e8f7;stroke-width:0.529175;stroke-dasharray:none;stroke-opacity:1"
     d="M 122.36722,53.703535 V 14.535292 l 11.22263,4.712755 v 34.32339 z"
     id="path2372"
     sodipodi:nodetypes="ccccc" /><ellipse
     style="fill:#c6e8f7;fill-opacity:1;stroke:none;stroke-width:1.61398;stroke-dasharray:none;stroke-opacity:1"
     id="path4820"
     cx="131.48596"
     cy="34.804764"
     rx="1.1887617"
     ry="1.5617465" /><path
     style="fill:#9ed7f1;fill-opacity:1;stroke:#c6e8f7;stroke-width:0.529175;stroke-dasharray:none;stroke-opacity:1"
     d="M 147.74888,53.703535 V 14.535292 l -11.22264,4.712755 v 34.32339 z"
     id="path4878"
     sodipodi:nodetypes="ccccc" /><ellipse
     style="fill:#c6e8f7;fill-opacity:1;stroke:none;stroke-width:1.61398;stroke-dasharray:none;stroke-opacity:1"
     id="ellipse4880"
     cx="-138.63014"
     cy="34.804764"
     rx="1.1887617"
     ry="1.5617465"
     transform="scale(-1,1)" /><g
     id="g4887"
     transform="translate(-74.332108,0.93292799)"
     style="stroke:#c6e8f7;stroke-opacity:1"><path
       style="fill:#ffffff;fill-opacity:0;stroke:#c6e8f7;stroke-width:1.61398;stroke-dasharray:none;stroke-opacity:1"
       d="M 195.85886,11.693139 V 53.299782"
       id="path2364" /><path
       style="fill:#ffffff;fill-opacity:0;stroke:#c6e8f7;stroke-width:1.61398;stroke-dasharray:none;stroke-opacity:1"
       d="M 222.92147,11.693139 V 53.299782"
       id="path2366" /><path
       style="fill:#ffffff;fill-opacity:0;stroke:#c6e8f7;stroke-width:1.33278;stroke-dasharray:none;stroke-opacity:1"
       d="M 223.60669,12.263644 H 195.23491"
       id="path2368" /></g><g
     id="g15186"><path
       style="fill:#000075;fill-opacity:0.21205139;stroke:#c6e8f7;stroke-width:1.58753;stroke-dasharray:none;stroke-opacity:1"
       d="M 46.264106,4.6530413 H 68.790425 L 57.421819,9.8057048 Z"
       id="path5095" /><path
       style="fill:none;fill-opacity:1;stroke:#c6e8f7;stroke-width:1.587525;stroke-dasharray:none;stroke-opacity:1"
       d="M 46.15906,43.872228 V 4.7039815 l 11.22263,4.712755 V 43.740128 Z"
       id="path4961"
       sodipodi:nodetypes="ccccc" /><ellipse
       style="fill:#c6e8f7;fill-opacity:0.5;stroke:none;stroke-width:1.61398;stroke-dasharray:none;stroke-opacity:1"
       id="ellipse4963"
       cx="54.748631"
       cy="24.973457"
       rx="1.1887617"
       ry="1.5617465" /><path
       style="fill:none;fill-opacity:1;stroke:#c6e8f7;stroke-width:1.587525;stroke-dasharray:none;stroke-opacity:1"
       d="M 68.894845,43.872228 V 4.7039815 l -11.22264,4.712755 V 43.740128 Z"
       id="path4965"
       sodipodi:nodetypes="ccccc" /><ellipse
       style="fill:#c6e8f7;fill-opacity:0.498138;stroke:none;stroke-width:1.61398;stroke-dasharray:none;stroke-opacity:1"
       id="ellipse4967"
       cx="-60.305286"
       cy="24.973457"
       rx="1.1887617"
       ry="1.5617465"
       transform="scale(-1,1)" /><path
       style="fill:#ffffff;fill-opacity:0;stroke:#c6e8f7;stroke-width:2.64587;stroke-dasharray:none;stroke-opacity:1"
       d="M 69.688608,4.5037446 H 24.963276"
       id="path4973" /><path
       style="fill:#ffffff;fill-opacity:0;stroke:#c6e8f7;stroke-width:2.43693;stroke-dasharray:none;stroke-opacity:1"
       d="M 46.54817,41.950938 V 4.0105008"
       id="path15177" /></g><g
     id="g17242"
     transform="translate(41.63498,-6.5462842)"><rect
       style="fill:#9ed7f1;fill-opacity:1;stroke:none;stroke-width:0.264587;stroke-dasharray:none;stroke-opacity:1"
       id="rect17126"
       width="46.634205"
       height="44.444016"
       x="198.6537"
       y="107.51315" /><path
       style="fill:#000000;fill-opacity:0.0843506;stroke:none;stroke-width:1.58753;stroke-dasharray:none;stroke-opacity:1"
       d="m 220.91418,110.37429 h 22.52631 l -11.16664,4.78485 z"
       id="path15188"
       sodipodi:nodetypes="cccc" /><g
       id="g17068"><path
         style="fill:url(#linearGradient15605);fill-opacity:1;stroke:#c6e8f7;stroke-width:1.58753;stroke-dasharray:none;stroke-opacity:1"
         d="m 220.80913,149.59348 v -39.16825 l 11.22263,4.71276 v 34.32339 z"
         id="path15190"
         sodipodi:nodetypes="ccccc" /><ellipse
         style="fill:#c6e8f7;fill-opacity:0.5;stroke:none;stroke-width:1.61398;stroke-dasharray:none;stroke-opacity:1"
         id="ellipse15192"
         cx="229.3987"
         cy="130.69472"
         rx="1.1887617"
         ry="1.5617465" /></g><path
       style="fill:url(#linearGradient15615);fill-opacity:1;stroke:#b4e0f4;stroke-width:1.58753;stroke-dasharray:none;stroke-opacity:1"
       d="m 243.54491,149.59348 v -39.16825 l -11.22263,4.71276 v 34.32339 z"
       id="path15194"
       sodipodi:nodetypes="ccccc" /><ellipse
       style="fill:#c6e8f7;fill-opacity:0.498138;stroke:none;stroke-width:1.61398;stroke-dasharray:none;stroke-opacity:1"
       id="ellipse15196"
       cx="-234.95535"
       cy="130.69472"
       rx="1.1887617"
       ry="1.5617465"
       transform="scale(-1,1)" /><path
       style="fill:#ffffff;fill-opacity:0;stroke:#7ccaee;stroke-width:2.64587;stroke-dasharray:none;stroke-opacity:1"
       d="M 244.33868,110.225 H 199.61335"
       id="path15198" /><path
       style="fill:#ffffff;fill-opacity:0;stroke:#7dcbed;stroke-width:2.43693;stroke-dasharray:none;stroke-opacity:1"
       d="M 221.19824,147.67219 V 109.73175"
       id="path15200" /><path
       style="fill:#c6e8f7;fill-opacity:1;stroke:none;stroke-width:0.264587;stroke-dasharray:none;stroke-opacity:1"
       d="m 202.62695,151.5616 41.76299,-0.92746 c 0.0618,-6.70754 -0.12614,-7.22656 -0.12499,-10.88122 3.9e-4,-1.2622 -4.52516,2.2286 -12.04471,7.06762 0,0 -13.30247,-2.64048 -24.11576,-1.70267 -14.07839,1.22098 -5.47753,6.44373 -5.47753,6.44373 z"
       id="path15204"
       sodipodi:nodetypes="ccscsc" /></g></svg>
